<svg width="62" height="62" viewBox="0 0 62 62" fill="none" xmlns="http://www.w3.org/2000/svg">
<circle cx="31" cy="31" r="31" fill="#E80013"/>
<path d="M49.8193 31.1485C48.2922 28.1774 45.9843 25.6717 43.1454 23.9022C40.2257 22.0825 36.8554 21.1206 33.3987 21.1206C28.7325 21.1206 24.3422 22.8349 20.9318 25.9687C19.3616 23.7209 16.89 22.2211 14.1494 21.8948L13.4842 21.8156L13.3147 22.4637C13.1059 23.2619 13 24.0875 13 24.9179C13 27.3622 13.9336 29.7189 15.5851 31.5C13.9336 33.2811 13 35.6378 13 38.0821C13 38.9125 13.1059 39.7381 13.3146 40.5363L13.4841 41.1843L14.1493 41.1051C16.8899 40.7788 19.3615 39.2791 20.9317 37.0313C24.3422 40.165 28.7324 41.8794 33.3986 41.8794C36.8554 41.8794 40.2257 40.9175 43.1453 39.0977C45.9843 37.3283 48.292 34.8225 49.8192 31.8514L50 31.4999L49.8193 31.1485ZM33.3986 40.3417C28.8241 40.3417 24.539 38.5441 21.3324 35.2802L20.6115 34.5464L20.1119 35.4455C18.9583 37.5213 16.9518 38.9876 14.6551 39.4659C14.5771 39.0103 14.5377 38.5472 14.5377 38.0821C14.5377 35.7994 15.5059 33.6074 17.194 32.0682L17.8171 31.5L17.194 30.9318C15.5059 29.3926 14.5377 27.2006 14.5377 24.9179C14.5377 24.4528 14.5771 23.9897 14.6551 23.5341C16.9518 24.0123 18.9583 25.4787 20.1119 27.5545L20.6115 28.4536L21.3324 27.7198C24.539 24.4559 28.8241 22.6583 33.3986 22.6583C39.6363 22.6583 45.2965 26.0356 48.2659 31.5C45.2965 36.9644 39.6363 40.3417 33.3986 40.3417Z" fill="white"/>
<path d="M34.1625 25.7337H32.6248V37.2663H34.1625V25.7337Z" fill="white"/>
<path d="M29.5494 26.5192H28.0118V36.4807H29.5494V26.5192Z" fill="white"/>
<path d="M38.7755 26.5177H37.2379V36.4824H38.7755V26.5177Z" fill="white"/>
<path d="M43.3886 29.9623C42.5407 29.9623 41.8509 30.6521 41.8509 31.5C41.8509 32.3479 42.5407 33.0377 43.3886 33.0377C44.2365 33.0377 44.9263 32.3479 44.9263 31.5C44.9263 30.6521 44.2365 29.9623 43.3886 29.9623Z" fill="white"/>
<path d="M24.9364 29.2631H23.3987V33.7369H24.9364V29.2631Z" fill="white"/>
</svg>
