<svg width="62" height="62" viewBox="0 0 62 62" fill="none" xmlns="http://www.w3.org/2000/svg">
<circle cx="31" cy="31" r="31" fill="#E80013"/>
<g clip-path="url(#clip0_170_132)">
<path d="M40.6253 31.4129H40.5974C41.0106 30.8668 41.2652 30.1944 41.2652 29.4583V28.7623C41.2652 27.7661 40.8768 26.9023 40.1717 26.3311C39.896 26.108 39.5861 25.9438 39.2522 25.8367C39.4322 24.6231 39.6382 22.0756 38.4367 20.9415C38.2186 20.7353 37.9916 20.599 37.7583 20.5056C38.165 16.0022 35.919 12.3464 34.087 12.0248C33.3748 11.8975 32.5152 12.2367 32.2293 13.5571C31.9236 14.9698 30.9676 15.1118 29.163 15.2581C28.1192 15.3434 26.9359 15.4395 25.8989 15.9979C25.16 16.3955 24.6851 16.982 24.4873 17.7402C24.1996 18.8432 24.6 20.055 24.9469 20.8194C24.3114 20.9798 23.7639 21.2423 23.3499 21.656C22.0384 22.9674 22.6434 25.14 23.0138 26.1173C22.9424 26.1705 22.8711 26.2241 22.8038 26.2837C22.1076 26.9007 21.724 27.7804 21.724 28.7625V29.4585C21.724 30.1948 21.9786 30.867 22.3918 31.4131H22.3754C22.0158 31.4131 21.724 31.7045 21.724 32.0645C21.724 32.4245 22.0158 32.7159 22.3754 32.7159H23.767L26.0822 48.4434C26.1293 48.7634 26.4034 49 26.7265 49H36.9136C37.2367 49 37.5108 48.7634 37.5579 48.4434L39.8731 32.7159H40.6247C40.9844 32.7159 41.2761 32.4245 41.2761 32.0645C41.2767 31.7042 40.9849 31.4129 40.6253 31.4129ZM25.748 18.069C25.8523 17.6695 26.1039 17.3668 26.5167 17.1447C27.3134 16.7153 28.3073 16.6345 29.2686 16.5569C31.0076 16.4157 32.9783 16.256 33.5031 13.8332C33.5846 13.4559 33.7073 13.281 33.8622 13.3078C34.8598 13.483 36.8284 16.386 36.4625 20.3878C36.0543 20.4455 35.6334 20.5634 35.2034 20.6847C34.2626 20.95 33.1946 21.249 31.8884 21.088L31.0379 20.9786C29.3965 20.7656 27.7271 20.5514 26.302 20.6276C25.9851 20.0358 25.5269 18.9171 25.748 18.069ZM24.2712 22.5769C25.3023 21.5471 28.2606 21.9314 30.8698 22.2704L31.7265 22.3804C33.2983 22.5775 34.5505 22.2226 35.557 21.9383C36.695 21.6164 37.1612 21.5293 37.5424 21.888C38.2015 22.5108 38.1601 24.3904 37.9552 25.7117C37.825 25.7252 37.6935 25.7448 37.5602 25.7732C37.5396 25.7783 35.4742 26.2961 34.0174 26.2961C31.307 26.2961 25.4696 25.5186 25.4033 25.5105C24.988 25.4596 24.5843 25.4839 24.2023 25.5712C23.9244 24.8089 23.5234 23.3248 24.2712 22.5769ZM27.2894 47.6968L26.7226 43.8459L30.5736 47.6968H27.2894ZM32.4158 47.697L26.7443 42.0255C26.6553 41.9365 26.5449 41.89 26.4307 41.8634L25.9355 38.4993L35.1333 47.697H32.4158ZM36.4314 47.153L25.6175 36.3391L25.1461 33.1374C25.1565 33.1494 25.1604 33.1645 25.1718 33.176L36.7801 44.7842L36.4314 47.153ZM37.0165 43.1786L26.5536 32.7157H29.271L37.2286 40.6733C37.2707 40.7154 37.322 40.7399 37.3714 40.7681L37.0165 43.1786ZM37.6016 39.2041L31.113 32.7155H33.8305L37.7594 36.6441C37.8183 36.7029 37.887 36.7451 37.9589 36.7766L37.6016 39.2041ZM38.1867 35.2294L35.6727 32.7157H38.0102H38.5567L38.1867 35.2294ZM39.9624 29.4583C39.9624 30.5357 39.0868 31.4129 38.0102 31.4129H24.9792C23.9026 31.4129 23.027 30.5357 23.027 29.4583V28.7623C23.027 28.1587 23.2547 27.6249 23.6678 27.2586C24.0177 26.9488 24.4711 26.7852 24.9619 26.7852C25.0529 26.7852 25.1451 26.7911 25.238 26.8025C25.4809 26.835 31.2201 27.599 34.0174 27.599C35.6374 27.599 37.7888 27.0596 37.8549 27.0425C38.4319 26.9203 38.962 27.0273 39.3516 27.3439C39.7456 27.6624 39.9624 28.1663 39.9624 28.7623V29.4583Z" fill="white"/>
</g>
<defs>
<clipPath id="clip0_170_132">
<rect width="37" height="37" fill="white" transform="translate(13 12)"/>
</clipPath>
</defs>
</svg>
