<svg width="62" height="62" viewBox="0 0 62 62" fill="none" xmlns="http://www.w3.org/2000/svg">
<circle cx="31" cy="31" r="31" fill="#E80013"/>
<g clip-path="url(#clip0_170_128)">
<path d="M43.9407 41.9986L43.9407 41.9987L43.9409 41.9984L43.9407 41.9986Z" fill="white"/>
<path d="M48.981 30.6713C48.8751 28.6771 48.3357 26.8026 47.3777 25.0996C46.3554 23.2825 44.9053 21.7575 43.0675 20.5669C41.2471 19.3877 39.4204 18.5038 37.4833 17.8649C34.2918 16.8122 31.1213 16.4008 28.0596 16.6412C25.3484 16.8543 22.7763 17.5687 20.415 18.7648C16.542 20.7266 13.4891 23.9345 12.4475 27.1367C11.7911 29.1548 11.8572 30.7612 12.6439 31.9115C13.8687 33.7023 16.3859 33.8449 17.8899 33.9301L18.0511 33.9393C18.1451 33.9449 18.2423 33.95 18.3425 33.9553C20.4372 34.0663 23.6029 34.234 26.8052 39.0988C29.1289 42.6287 32.286 43.8426 34.5253 44.2393C35.2317 44.3645 35.9507 44.4254 36.6687 44.4254C39.1951 44.4254 41.7039 43.6699 43.5563 42.2967C43.6853 42.2011 43.8146 42.1008 43.9409 41.9984C47.3278 39.254 49.2121 35.0196 48.981 30.6713ZM43.1102 40.9737C43.1102 40.9738 43.1101 40.9738 43.1101 40.9738C42.9986 41.0642 42.8846 41.1528 42.7708 41.2369C40.6731 42.792 37.6019 43.4446 34.7553 42.9405C32.7712 42.589 29.9725 41.5113 27.9069 38.3734C26.3461 36.0023 24.6298 34.4175 22.6598 33.5284C20.9894 32.7745 19.4998 32.6955 18.4121 32.6379C18.3144 32.6327 18.2196 32.6278 18.128 32.6224L17.9645 32.613C16.7028 32.5416 14.5912 32.422 13.7326 31.1668C13.189 30.3719 13.1786 29.1532 13.7018 27.5448C14.4363 25.2869 16.7421 22.1039 21.011 19.9415C23.1094 18.8786 26.0592 17.8852 29.7558 17.8852C31.9404 17.8852 34.3864 18.2325 37.07 19.1177C38.9241 19.7293 40.6019 20.5415 42.3502 21.6741C45.5771 23.7646 47.4642 26.9846 47.6637 30.7414C47.8724 34.669 46.1701 38.4943 43.1102 40.9737Z" fill="white"/>
<path d="M46.7854 30.7879C46.6013 27.3201 44.8562 24.3456 41.872 22.4122C40.1885 21.3217 38.5751 20.5402 36.7945 19.9529C34.4211 19.1702 32.0568 18.7731 29.7672 18.7731C25.0051 18.7731 21.5467 20.4535 19.4839 21.8633C17.061 23.5191 15.2121 25.7448 14.5381 27.8169C14.2394 28.7351 13.9832 29.9755 14.4586 30.6704C14.9685 31.4159 16.2489 31.6352 18.0145 31.7351C18.0145 31.7351 18.3634 31.7548 18.4591 31.7598C19.5508 31.8177 21.2007 31.9051 23.0218 32.727C25.1481 33.6866 26.9863 35.3754 28.6415 37.8899C31.1262 41.6647 34.7435 42.2286 36.6785 42.2288C38.7304 42.2288 40.8124 41.594 42.2465 40.5308C42.3493 40.4546 42.4535 40.3737 42.5564 40.2904C45.3983 37.9876 46.9792 34.4353 46.7854 30.7879ZM41.726 39.2656C41.6379 39.337 41.5488 39.4061 41.461 39.4711C40.2459 40.3718 38.4584 40.9096 36.6794 40.9096C35.0098 40.9094 31.888 40.4228 29.7434 37.1646C27.9466 34.4351 25.9256 32.5902 23.5644 31.5246C21.5177 30.6009 19.719 30.5056 18.5291 30.4425C18.4346 30.4374 18.0889 30.4179 18.089 30.4179C16.0835 30.3045 15.6449 30.0409 15.5496 29.928C15.5001 29.819 15.4444 29.2954 15.7927 28.2249C16.3797 26.4204 18.0378 24.4493 20.2283 22.9524C22.1374 21.6477 25.3421 20.0923 29.7672 20.0923C31.9161 20.0923 34.1414 20.467 36.3813 21.2057C38.0519 21.7567 39.5687 22.4919 41.1547 23.5194C43.775 25.2169 45.3069 27.8231 45.4681 30.8579C45.6397 34.0849 44.2407 37.2278 41.726 39.2656Z" fill="white"/>
<path d="M37.8174 27.9543C35.5626 27.9543 33.7281 29.7888 33.7281 32.0437C33.7281 34.2985 35.5626 36.133 37.8174 36.133C40.0723 36.133 41.9067 34.2985 41.9067 32.0437C41.9067 29.7888 40.0723 27.9543 37.8174 27.9543ZM37.8174 34.8138C36.29 34.8138 35.0473 33.5711 35.0473 32.0437C35.0473 30.5162 36.29 29.2736 37.8174 29.2736C39.3448 29.2736 40.5875 30.5162 40.5875 32.0437C40.5875 33.5711 39.3448 34.8138 37.8174 34.8138Z" fill="white"/>
<path d="M25.6482 21.8847L25.6482 21.8847C25.8678 22.012 25.9426 22.2933 25.8153 22.5129L21.9898 29.1085C21.9898 29.1085 21.9898 29.1085 21.9898 29.1085C21.9047 29.2552 21.7507 29.3376 21.5916 29.3376C21.5136 29.3376 21.4345 29.3177 21.3618 29.2755L21.3617 29.2754C21.1421 29.148 21.0674 28.8668 21.1947 28.6473L21.1947 28.6473L25.0202 22.0517C25.1475 21.8321 25.4288 21.7574 25.6482 21.8847Z" fill="white" stroke="white" stroke-width="0.4"/>
<path d="M31.2204 22.0166L31.2205 22.0167C31.44 22.144 31.5148 22.4251 31.3875 22.6449L26.34 31.3473C26.2549 31.4941 26.1009 31.5764 25.9418 31.5764C25.8638 31.5764 25.7847 31.5566 25.712 31.5143L25.7119 31.5143C25.4923 31.3869 25.4175 31.1057 25.5449 30.8862L25.5449 30.8862L30.5924 22.1836C30.7197 21.9641 31.0011 21.8894 31.2204 22.0166Z" fill="white" stroke="white" stroke-width="0.4"/>
<path d="M36.7937 23.2578L36.7937 23.2578C37.0129 23.3859 37.0866 23.6674 36.9584 23.8864L36.9584 23.8865L30.328 35.2273L30.328 35.2273C30.2427 35.3733 30.0892 35.455 29.9307 35.455C29.852 35.455 29.7725 35.4349 29.6994 35.3921L29.6994 35.3921C29.4803 35.264 29.4065 34.9825 29.5346 34.7634L29.5346 34.7634L36.165 23.4226C36.165 23.4226 36.165 23.4226 36.165 23.4226C36.2933 23.2034 36.5747 23.1297 36.7937 23.2578Z" fill="white" stroke="white" stroke-width="0.4"/>
<path d="M35.8497 36.6556L35.8498 36.6557C36.0689 36.7837 36.1427 37.0652 36.0146 37.2843L36.0145 37.2843L35.3627 38.3993L35.3627 38.3993C35.2774 38.5453 35.1239 38.6271 34.9654 38.6271C34.8867 38.6271 34.8071 38.6069 34.734 38.5642L34.734 38.5641C34.5149 38.436 34.4411 38.1545 34.5692 37.9355L34.5692 37.9354L35.2211 36.8204C35.2211 36.8204 35.2211 36.8204 35.2211 36.8204C35.3492 36.6013 35.6308 36.5275 35.8497 36.6556Z" stroke="white" stroke-width="0.4"/>
<path d="M42.1244 25.8936L42.1246 25.8937C42.3438 26.0218 42.4175 26.3032 42.2893 26.5222L42.2892 26.5223L41.4721 27.92L41.4721 27.92C41.3868 28.0659 41.2333 28.1477 41.0748 28.1477C40.9962 28.1477 40.9166 28.1276 40.8435 28.0848L40.8435 28.0848C40.6244 27.9567 40.5506 27.6751 40.6787 27.4561L40.6787 27.4561L41.4958 26.0585C41.4958 26.0585 41.4958 26.0585 41.4959 26.0584C41.6242 25.8392 41.9057 25.7655 42.1244 25.8936ZM42.4619 26.6233C42.646 26.3089 42.5401 25.9049 42.2255 25.7211L42.4619 26.6233Z" stroke="white" stroke-width="0.4"/>
</g>
<defs>
<clipPath id="clip0_170_128">
<rect width="37" height="37" fill="white" transform="translate(12 12)"/>
</clipPath>
</defs>
</svg>
