<svg width="62" height="62" viewBox="0 0 62 62" fill="none" xmlns="http://www.w3.org/2000/svg">
<circle cx="31" cy="31" r="31" fill="#E80013"/>
<g clip-path="url(#clip0_170_130)">
<path d="M44.5814 17.4142C37.3685 10.2006 25.6318 10.2006 18.4189 17.4142C13.652 22.181 11.8555 29.1695 13.7302 35.6514C13.7808 35.8268 13.9018 35.9734 14.0644 36.0566C14.2269 36.1392 14.4166 36.1528 14.5886 36.0895L32.2719 29.7237L25.9057 47.4067C25.8437 47.5784 25.856 47.7681 25.939 47.9307C26.0219 48.0932 26.1684 48.2146 26.3438 48.2656C28.042 48.7566 29.7739 48.9961 31.4924 48.9961C36.3342 48.9961 41.0634 47.0952 44.5814 43.5769C48.0756 40.083 50 35.4374 50 30.4956C50 25.5539 48.0756 20.908 44.5814 17.4142ZM33.9909 28.8507C34.0776 28.6102 34.0173 28.3405 33.8362 28.1597C33.6549 27.9791 33.3861 27.9185 33.1451 28.0056L18.5795 33.2487C17.6571 28.8941 18.9925 24.3157 22.1565 21.1512C27.3083 15.9997 35.6919 15.999 40.8445 21.1512C45.9967 26.3035 45.9967 34.6874 40.8445 39.8394C37.6453 43.0386 33.1535 44.3533 28.7478 43.4145L33.9909 28.8507ZM43.6473 42.6426C39.3868 46.9023 33.2162 48.6077 27.3927 47.1784L28.2961 44.6693C29.379 44.9139 30.4669 45.0396 31.5445 45.0396C35.3436 45.0396 39.0036 43.5492 41.7786 40.7739C47.4458 35.1064 47.4458 25.8847 41.7786 20.2171C36.1111 14.5495 26.8897 14.5495 21.2222 20.2171C17.6991 23.7401 16.2397 28.8577 17.3285 33.6991L14.8174 34.603C13.3881 28.7792 15.0934 22.6089 19.3532 18.3485C26.052 11.6511 36.9497 11.6517 43.6471 18.3485C46.8915 21.5933 48.6786 25.9067 48.6786 30.4954C48.6786 35.0842 46.8917 39.3976 43.6473 42.6426Z" fill="white"/>
<path d="M29.5068 32.4892C29.3262 32.3086 29.0574 32.246 28.8173 32.3344L13.5556 37.7845C13.2158 37.9057 13.0365 38.2768 13.152 38.6189C13.1949 38.7453 14.2381 41.7565 17.2384 44.7574C20.239 47.7578 23.25 48.8004 23.3768 48.8437C23.4471 48.8675 23.5184 48.8786 23.5887 48.8786C23.8603 48.8786 24.1146 48.7101 24.211 48.4398L29.6618 33.1784C29.7477 32.9382 29.6874 32.6698 29.5068 32.4892ZM23.1993 47.3442C22.2168 46.9016 20.1789 45.8292 18.1726 43.8231C16.1663 41.8164 15.0939 39.7781 14.6513 38.7962L16.479 38.1434C17.1068 39.8346 18.0626 41.3519 19.3531 42.6424C20.6438 43.9325 22.1609 44.8892 23.8518 45.517L23.1993 47.3442ZM24.2958 44.2739C22.7903 43.7119 21.4383 42.8586 20.2874 41.7083C19.1367 40.5576 18.284 39.2059 17.7221 37.6997L27.9481 34.0476L24.2958 44.2739Z" fill="white"/>
<path d="M26.8284 19.2828C25.5405 20.5706 25.5405 22.6671 26.8284 23.9549C27.4723 24.5988 28.3183 24.9209 29.1641 24.9209C30.0102 24.9209 30.8562 24.5988 31.5001 23.9549C32.7879 22.6671 32.7879 20.5706 31.5001 19.2828C30.2123 17.995 28.1164 17.9957 26.8284 19.2828ZM30.5658 23.0206C29.7928 23.7929 28.5355 23.7936 27.7627 23.0206C26.99 22.2476 26.99 20.9901 27.7627 20.2171C28.535 19.4441 29.7922 19.4436 30.5658 20.2171C31.3386 20.9901 31.3386 22.2476 30.5658 23.0206Z" fill="white"/>
<path d="M35.7051 40.8066C36.5874 40.8066 37.4169 40.4628 38.0408 39.8389C38.6647 39.215 39.0084 38.3858 39.0084 37.5032C39.0084 36.6206 38.6649 35.7914 38.0408 35.1675C37.4169 34.5436 36.5874 34.1998 35.7051 34.1998C34.8225 34.1998 33.9929 34.5436 33.3691 35.1675C32.7452 35.7914 32.4015 36.6206 32.4015 37.5032C32.4015 38.3858 32.745 39.215 33.3691 39.8389C33.9929 40.4628 34.8225 40.8066 35.7051 40.8066ZM34.3034 36.1018C34.678 35.7276 35.1755 35.5212 35.7051 35.5212C36.2346 35.5212 36.732 35.7277 37.1065 36.1018C37.4807 36.4761 37.6869 36.9736 37.6869 37.5032C37.6869 38.033 37.4807 38.5303 37.1065 38.9046C36.3571 39.6531 35.0521 39.6531 34.3034 38.9046C33.9291 38.5303 33.7229 38.0329 33.7229 37.5032C33.7229 36.9736 33.9291 36.4761 34.3034 36.1018Z" fill="white"/>
<path d="M37.1065 30.4954C37.7508 31.1393 38.5964 31.4614 39.4425 31.4614C40.2885 31.4614 41.1347 31.1393 41.7786 30.4954C43.0664 29.2076 43.0664 27.1112 41.7786 25.8233C40.4904 24.5355 38.3947 24.5355 37.1065 25.8233C35.8187 27.1113 35.8187 29.2076 37.1065 30.4954ZM38.0408 26.7576C38.8138 25.9853 40.0713 25.9859 40.8443 26.7576C41.6169 27.5307 41.6169 28.7881 40.8443 29.5611C40.0713 30.3322 38.8138 30.3329 38.0408 29.5611C37.2681 28.7883 37.2681 27.5307 38.0408 26.7576Z" fill="white"/>
<path d="M23.8808 24.1058C23.1832 24.1756 21.8475 24.7782 21.7825 26.557C21.7693 26.9216 22.0542 27.2281 22.4188 27.241C22.4272 27.2417 22.4352 27.2417 22.4433 27.2417C22.7971 27.2417 23.09 26.9617 23.1033 26.6048C23.1394 25.6138 23.8123 25.4473 24.0201 25.4201C24.3791 25.3795 24.6402 25.0582 24.6041 24.6975C24.5676 24.3342 24.2431 24.0742 23.8808 24.1058Z" fill="white"/>
<path d="M35.9093 25.0607C36.059 25.0607 36.2094 25.0103 36.3329 24.9066C36.6129 24.6723 36.6501 24.2562 36.4159 23.9762C35.7797 23.216 36.168 22.6424 36.3045 22.4825C36.5445 22.2129 36.5232 21.7993 36.2551 21.5554C35.9858 21.309 35.5671 21.3295 35.3219 21.5992C34.8502 22.1174 34.2599 23.4587 35.4022 24.8241C35.5327 24.98 35.7205 25.0607 35.9093 25.0607Z" fill="white"/>
<path d="M41.4436 34.1617C41.6836 33.8913 41.6623 33.4777 41.3943 33.2338C41.125 32.9894 40.7066 33.0092 40.4611 33.2783C39.9893 33.7971 39.3991 35.1386 40.5413 36.5038C40.6721 36.6599 40.8598 36.7406 41.0485 36.7406C41.1981 36.7406 41.3485 36.6901 41.4721 36.5864C41.7521 36.3522 41.7893 35.9361 41.555 35.6561C40.9185 34.8952 41.3076 34.321 41.4436 34.1617Z" fill="white"/>
<path d="M21.2108 39.7919C21.4615 39.9267 21.848 40.0474 22.2893 40.0474C22.9352 40.0474 23.6982 39.788 24.3212 38.9332C24.5361 38.6384 24.4712 38.2255 24.1763 38.01C23.8807 37.7958 23.4686 37.8609 23.2533 38.1552C22.6687 38.9566 22.018 38.7185 21.8303 38.6249C21.5102 38.4552 21.1137 38.5779 20.9424 38.8973C20.7695 39.2183 20.8895 39.619 21.2108 39.7919Z" fill="white"/>
</g>
<defs>
<clipPath id="clip0_170_130">
<rect width="37" height="37" fill="white" transform="translate(13 12)"/>
</clipPath>
</defs>
</svg>
