<svg width="62" height="62" viewBox="0 0 62 62" fill="none" xmlns="http://www.w3.org/2000/svg">
<circle cx="31" cy="31" r="31" fill="#E80013"/>
<g clip-path="url(#clip0_170_131)">
<path d="M46.0668 30.6774C47.3958 28.6421 47.168 25.8802 45.3824 24.0945C44.3906 23.1027 43.072 22.5566 41.6694 22.5566C40.4645 22.5566 39.322 22.9608 38.395 23.7033C37.9769 23.3379 37.489 22.9849 36.8904 22.7849C36.5517 22.6717 36.1679 22.6168 35.7169 22.6168C35.3417 22.6168 34.9577 22.6538 34.5863 22.6895C34.2272 22.7242 33.8559 22.7599 33.5065 22.7599C33.2962 22.7599 33.1103 22.7473 32.9383 22.7214C32.4848 22.653 32.0049 22.4464 31.4968 22.2278C30.7659 21.9134 30.0103 21.5882 29.1665 21.5882C28.3229 21.5882 27.5673 21.9133 26.8365 22.2278C26.3283 22.4464 25.8484 22.653 25.3949 22.7214C25.2229 22.7473 25.037 22.7599 24.8267 22.7599C24.4772 22.7599 24.1059 22.7241 23.7468 22.6895C23.3755 22.6538 22.9915 22.6168 22.6163 22.6168C22.1654 22.6168 21.7814 22.6717 21.4427 22.7849C20.5614 23.0794 19.899 23.7206 19.3144 24.2862C18.956 24.6331 18.6176 24.9608 18.2711 25.1738C17.8621 25.4253 17.3818 25.6179 16.9173 25.8042C16.1007 26.1317 15.2564 26.4703 14.7379 27.1561C13.9874 28.1486 14.0537 29.3557 14.1122 30.4207C14.1169 30.5078 14.1215 30.5931 14.1257 30.6773H12V31.2268C12 35.6305 15.5826 39.2132 19.9864 39.2132H24.7114V38.1143H19.9864C16.3736 38.1143 13.4017 35.3181 13.1207 31.7763H14.1427H27.6889H32.0859H38.2266H39.8273H45.1128H47.8793C47.5983 35.3181 44.6264 38.1143 41.0137 38.1143H26.1769V39.2132H41.0138C45.4174 39.2132 49.0001 35.6306 49.0001 31.2268V30.6773H46.0668V30.6774ZM20.7733 30.6774C19.9829 30.6775 19.3399 30.0345 19.3399 29.2443C19.3399 28.454 19.9829 27.811 20.7733 27.811C21.5636 27.811 22.2065 28.4539 22.2065 29.2443C22.2065 30.0345 21.5636 30.6774 20.7733 30.6774ZM22.8594 30.6774C22.8675 30.6658 22.8754 30.6541 22.8832 30.6423C22.8927 30.6539 22.9021 30.6658 22.9117 30.6774H22.8594ZM25.2516 30.6775C24.1787 30.6775 23.3055 29.8044 23.3055 28.7314C23.3055 27.6583 24.1786 26.7852 25.2517 26.7852C26.0666 26.7852 26.7781 27.2872 27.064 28.0212L25.0877 29.1284L25.0876 29.1285L25.3562 29.6078C25.3973 29.681 25.4404 29.7525 25.4846 29.8233C25.4968 29.843 25.5094 29.8623 25.5218 29.8818C25.5609 29.9425 25.601 30.0024 25.6424 30.0613C25.6494 30.0713 25.6561 30.0814 25.6631 30.0914C25.7123 30.1603 25.7634 30.2277 25.8158 30.294C25.8257 30.3065 25.8358 30.3188 25.8459 30.3313C25.8961 30.3937 25.9476 30.4549 26.0006 30.5149C26.0032 30.5179 26.0057 30.5211 26.0083 30.5241C25.7706 30.6245 25.5135 30.6775 25.2516 30.6775ZM31.8892 30.6416C31.8676 30.6536 31.8457 30.6657 31.8236 30.6775H27.951V30.6775C27.698 30.5421 27.4623 30.3812 27.2457 30.1984L27.2424 30.1957C27.0083 29.9977 26.7986 29.7757 26.6156 29.5322L33.6966 25.5653C34.4386 27.441 33.6962 29.6293 31.8892 30.6416ZM37.4047 24.7453C37.3727 24.7898 37.3415 24.8347 37.311 24.8798C37.2953 24.9032 37.2797 24.9267 37.2643 24.9503C37.2335 24.9978 37.2039 25.0456 37.1747 25.0938C37.1623 25.1143 37.1494 25.1348 37.1373 25.1555C37.0971 25.2241 37.0584 25.2933 37.0216 25.3633C37.019 25.368 37.0168 25.3731 37.0143 25.3779C36.9803 25.4431 36.9479 25.509 36.9168 25.5753C36.9061 25.5984 36.8959 25.6218 36.8854 25.6449C36.8633 25.694 36.8417 25.7435 36.8211 25.7931C36.8104 25.8192 36.7998 25.8454 36.7894 25.8716C36.7699 25.9208 36.7514 25.9703 36.7335 26.0199C36.7246 26.0447 36.7154 26.0694 36.7069 26.0943C36.6857 26.1559 36.6658 26.2177 36.6472 26.2798C36.6434 26.2923 36.6391 26.3046 36.6355 26.317C36.6137 26.3913 36.5938 26.4658 36.5753 26.5407C36.5697 26.5635 36.5648 26.5864 36.5595 26.6093C36.5472 26.6624 36.5354 26.7154 36.5246 26.7688C36.5191 26.7967 36.5139 26.8246 36.5087 26.8525C36.4996 26.9024 36.4913 26.9525 36.4835 27.0026C36.4792 27.0303 36.4749 27.058 36.4711 27.0859C36.4634 27.1416 36.4569 27.1974 36.4511 27.2533C36.4488 27.2745 36.446 27.2956 36.4441 27.3168C36.437 27.3928 36.4315 27.469 36.4277 27.5451C36.4267 27.565 36.4265 27.5848 36.4259 27.6047C36.4237 27.6621 36.422 27.7195 36.4217 27.777C36.4215 27.8051 36.422 27.8332 36.4222 27.8611C36.4227 27.9114 36.4239 27.9617 36.4259 28.0119C36.427 28.0407 36.4282 28.0696 36.4298 28.0983C36.4327 28.1509 36.4366 28.2032 36.441 28.2556C36.4431 28.2807 36.4449 28.3057 36.4473 28.3307C36.4548 28.4066 36.4637 28.4826 36.4746 28.5582C36.4761 28.5688 36.4782 28.5795 36.4798 28.5903C36.4896 28.656 36.5006 28.7216 36.5129 28.7871C36.5178 28.8132 36.5235 28.8393 36.5288 28.8654C36.5391 28.9159 36.5499 28.9664 36.5618 29.0167C36.5684 29.0448 36.5753 29.073 36.5823 29.1009C36.595 29.1509 36.6085 29.2007 36.6226 29.2504C36.6299 29.2762 36.637 29.3021 36.6448 29.3279C36.6638 29.3909 36.6839 29.4535 36.7052 29.5157C36.7092 29.5272 36.7126 29.5387 36.7165 29.5502C36.7422 29.6234 36.7698 29.696 36.7986 29.7683C36.8074 29.7901 36.8169 29.8118 36.826 29.8336C36.8473 29.8847 36.8692 29.9356 36.8922 29.9862C36.9038 30.0118 36.9157 30.0371 36.9278 30.0625C36.9505 30.1103 36.974 30.1577 36.9981 30.2049C37.0106 30.2293 37.0229 30.2535 37.0358 30.2776C37.0644 30.3314 37.0942 30.3847 37.1249 30.4376C37.1341 30.4537 37.1428 30.4699 37.1523 30.4858C37.1906 30.5504 37.2302 30.6145 37.2714 30.6777H33.6229V30.6775C35.1727 29.0714 35.5646 26.576 34.4189 24.5308L34.1504 24.0514L28.0283 27.4811C27.5472 26.4087 26.4741 25.6863 25.2517 25.6863C24.0478 25.6863 23.0049 26.3887 22.511 27.4051C22.0571 26.976 21.4456 26.712 20.7732 26.712C19.3769 26.712 18.2409 27.848 18.2409 29.2444C18.2409 29.776 18.4059 30.2697 18.687 30.6775H15.2262C15.2212 30.5712 15.2153 30.4652 15.2096 30.3606C15.1568 29.3989 15.107 28.4905 15.6145 27.8192C15.949 27.3769 16.618 27.1085 17.3265 26.8243C17.8336 26.621 18.3581 26.4106 18.8468 26.1101C19.2956 25.8341 19.6938 25.4487 20.0788 25.076C20.6036 24.5679 21.1462 24.0426 21.7908 23.8273C22.0186 23.7513 22.2809 23.7158 22.6163 23.7158C22.9387 23.7158 23.28 23.7486 23.6413 23.7836C24.0263 23.8207 24.4244 23.859 24.8267 23.859C25.0925 23.859 25.3319 23.8423 25.5588 23.8081C26.1525 23.7185 26.7209 23.474 27.2708 23.2373C27.9283 22.9544 28.5493 22.6871 29.1664 22.6871C29.7836 22.6871 30.4048 22.9543 31.0623 23.2374C31.6122 23.474 32.1807 23.7186 32.7743 23.8081C33.0012 23.8423 33.2406 23.859 33.5063 23.859C33.9086 23.859 34.3067 23.8206 34.6916 23.7836C35.053 23.7486 35.3944 23.7158 35.7168 23.7158C36.052 23.7158 36.3143 23.7513 36.542 23.8273C36.9376 23.9595 37.2922 24.2076 37.6093 24.4773C37.6069 24.4803 37.6046 24.4834 37.6021 24.4864C37.5914 24.4996 37.5812 24.5131 37.5706 24.5264C37.5301 24.5769 37.4906 24.6277 37.4525 24.6792C37.4362 24.7012 37.4205 24.7234 37.4047 24.7453ZM44.9676 30.3289L43.1406 28.5018L42.3634 29.2788L43.7623 30.6777H39.5766V30.6775L40.9755 29.2786L40.1983 28.5016L38.3715 30.3286C38.3673 30.3231 38.363 30.3177 38.3589 30.3122C38.3381 30.2847 38.3175 30.2572 38.2975 30.2294C38.2773 30.2014 38.2579 30.1731 38.2386 30.1449C38.2191 30.1164 38.2 30.0879 38.1813 30.0591C38.163 30.0306 38.1452 30.0018 38.1276 29.973C38.1097 29.9436 38.0919 29.9143 38.0747 29.8846C38.058 29.8556 38.0419 29.8263 38.0259 29.7971C38.0094 29.7668 37.993 29.7366 37.9773 29.7059C37.9623 29.6768 37.948 29.6472 37.9337 29.6176C37.9186 29.5864 37.9035 29.5552 37.8894 29.5238C37.8759 29.4942 37.8634 29.4644 37.8509 29.4347C37.8373 29.4026 37.8237 29.3706 37.8109 29.3383C37.7992 29.3087 37.7881 29.2788 37.7771 29.2488C37.7651 29.216 37.7529 29.1832 37.7417 29.1501C37.7315 29.1202 37.7222 29.0902 37.7128 29.06C37.7021 29.0266 37.6916 28.993 37.6819 28.9593C37.6733 28.9294 37.6655 28.8993 37.6576 28.8692C37.6486 28.835 37.6396 28.8007 37.6315 28.7664C37.6245 28.7366 37.6183 28.7067 37.6119 28.6767C37.6044 28.6417 37.5969 28.6068 37.5904 28.5717C37.5849 28.542 37.5802 28.5121 37.5753 28.4823C37.5695 28.4468 37.5637 28.4112 37.5587 28.3756C37.5546 28.346 37.5515 28.3164 37.5481 28.2868C37.5439 28.2507 37.5396 28.2147 37.5364 28.1785C37.5338 28.1492 37.5321 28.1199 37.5301 28.0906C37.5277 28.0539 37.5251 28.0174 37.5235 27.9807C37.5223 27.9518 37.5221 27.9228 37.5215 27.8938C37.5207 27.8567 37.5199 27.8197 37.52 27.7827C37.5202 27.754 37.5213 27.7255 37.5221 27.697C37.523 27.6594 37.5238 27.6222 37.5258 27.5847C37.5273 27.5566 37.5299 27.5285 37.5319 27.5005C37.5347 27.4627 37.5372 27.4249 37.5411 27.3872C37.5439 27.3596 37.5476 27.3321 37.551 27.3045C37.5556 27.2664 37.56 27.2284 37.5656 27.1904C37.5697 27.1633 37.5747 27.1364 37.5793 27.1094C37.5858 27.0713 37.592 27.033 37.5995 26.9949C37.6048 26.9684 37.611 26.942 37.6168 26.9155C37.6252 26.8773 37.6333 26.8389 37.6427 26.8009C37.6492 26.7751 37.6566 26.7493 37.6635 26.7235C37.6738 26.6852 37.6839 26.6468 37.6953 26.6086C37.7028 26.5834 37.7114 26.5586 37.7195 26.5335C37.7317 26.4952 37.7438 26.4569 37.7572 26.4189C37.7659 26.3942 37.7756 26.3699 37.7848 26.3454C37.799 26.3074 37.813 26.2693 37.8285 26.2316C37.8382 26.2076 37.8491 26.1841 37.8593 26.1604C37.8756 26.1226 37.8915 26.0848 37.909 26.0474C37.9198 26.0241 37.9318 26.0013 37.9431 25.9783C37.9614 25.9408 37.9794 25.9034 37.9989 25.8665C38.0108 25.8438 38.0239 25.8218 38.0363 25.7993C38.0566 25.7625 38.0766 25.7256 38.0981 25.6893C38.1114 25.6669 38.1259 25.645 38.1397 25.6226C38.1617 25.5871 38.1834 25.5513 38.2066 25.5163C38.2214 25.4938 38.2376 25.472 38.253 25.4496C38.2765 25.4155 38.2997 25.3811 38.3243 25.3475C38.3395 25.327 38.3559 25.307 38.3715 25.2868L40.1984 27.1137L40.9756 26.3366L39.1482 24.5092C39.8688 23.9561 40.7459 23.6556 41.6695 23.6556C42.5931 23.6556 43.4701 23.9561 44.1907 24.5092L42.3635 26.3365L43.1406 27.1136L44.9675 25.2867C46.1021 26.7694 46.1024 28.8468 44.9676 30.3289Z" fill="white"/>
<path d="M49 40.3128H12V41.4117H49V40.3128Z" fill="white"/>
</g>
<defs>
<clipPath id="clip0_170_131">
<rect width="37" height="37" fill="white" transform="translate(12 13)"/>
</clipPath>
</defs>
</svg>
